<svg width="150.47" height="38.16" viewBox="0 0 39.81 10.1" xmlns="http://www.w3.org/2000/svg">
  <path d="M0 .17h2.3V4.5L5.62.17H8.4L4.6 4.74l4.1 5.34H5.77L2.3 5.38v4.7H0zm10 9.9V.18h1.9q1.1 0 1.88.32.77.3 1.26.81.5.5.72 1.14.24.63.24 1.27 0 .66-.27 1.27-.27.62-.75 1.12-.49.5-1.17.83-.68.36-1.51.5v2.65zm2.32-4.78q.46-.1.84-.47.38-.4.38-1.13 0-.65-.35-1.02-.35-.38-.87-.38zM20.48.17v2.66q.91.07 1.6.38.7.32 1.16.81.47.49.7 1.1.24.62.24 1.28 0 .64-.23 1.3-.24.65-.77 1.19-.51.53-1.35.86-.84.33-2.05.33h-1.6V.17zm1.23 6.25q0-.65-.37-1.01-.36-.38-.86-.46v3q.52 0 .87-.43.36-.44.36-1.1zM24.9.17h2.3v9.9h-2.3zM29.8 0l5.07 3.84L39.81 0v10.08h-2.3V4.74L34.88 6.8l-2.77-2.05v5.36h-2.3z"/>
</svg>
